<svg xmlns="http://www.w3.org/2000/svg" viewBox="0 0 256 256" role="img" aria-label="DYMO LabelWriter printer">
  <defs>
    <linearGradient id="background" x1="34" y1="20" x2="222" y2="236" gradientUnits="userSpaceOnUse">
      <stop stop-color="#39C6A3"/>
      <stop offset="1" stop-color="#087F78"/>
    </linearGradient>
    <linearGradient id="printer" x1="73" y1="60" x2="186" y2="203" gradientUnits="userSpaceOnUse">
      <stop stop-color="#FFFFFF"/>
      <stop offset="1" stop-color="#DAF4EF"/>
    </linearGradient>
    <filter id="shadow" x="38" y="40" width="180" height="190" filterUnits="userSpaceOnUse">
      <feDropShadow dx="0" dy="8" stdDeviation="8" flood-color="#005B56" flood-opacity=".3"/>
    </filter>
  </defs>
  <rect width="256" height="256" rx="56" fill="url(#background)"/>
  <g filter="url(#shadow)">
    <path d="M78 69c0-8.84 7.16-16 16-16h68c8.84 0 16 7.16 16 16v35H78V69Z" fill="url(#printer)"/>
    <rect x="58" y="91" width="140" height="88" rx="24" fill="#F7FFFD"/>
    <rect x="74" y="109" width="108" height="47" rx="14" fill="#0A6C68"/>
    <circle cx="170" cy="121" r="5" fill="#7CF3CF"/>
    <path d="M84 145h88v50c0 6.63-5.37 12-12 12H96c-6.63 0-12-5.37-12-12v-50Z" fill="url(#printer)"/>
    <path d="M101 164h54M101 178h38" stroke="#40AA99" stroke-width="7" stroke-linecap="round"/>
  </g>
</svg>
